<?xml version="1.0" standalone="no"?>
<!DOCTYPE svg PUBLIC "-//W3C//DTD SVG 20010904//EN"
 "http://www.w3.org/TR/2001/REC-SVG-20010904/DTD/svg10.dtd">
<svg version="1.0" xmlns="http://www.w3.org/2000/svg"
 width="512.000000pt" height="512.000000pt" viewBox="0 0 512.000000 512.000000"
 preserveAspectRatio="xMidYMid meet">
<metadata>
Created by potrace 1.11, written by Peter Selinger 2001-2013
</metadata>
<g transform="translate(0.000000,512.000000) scale(0.100000,-0.100000)"
fill="#000000" stroke="none">
<path d="M3270 4871 c-79 -26 -1845 -758 -1905 -789 -27 -15 -74 -52 -105 -83
-132 -134 -176 -333 -111 -514 41 -116 1217 -2950 1249 -3010 56 -105 191
-206 312 -234 67 -16 185 -13 247 5 73 21 1876 768 1928 799 96 56 186 174
219 287 20 68 21 208 3 269 -17 56 -1208 2932 -1251 3019 -59 122 -193 228
-326 259 -70 16 -198 12 -260 -8z m-1534 -1007 c66 -40 107 -107 112 -184 5
-73 -11 -122 -56 -172 -92 -102 -234 -110 -334 -20 -167 150 -55 422 168 410
47 -3 73 -11 110 -34z"/>
<path d="M628 2825 c-15 -23 -599 -1439 -613 -1487 -21 -71 -19 -209 3 -278
38 -117 109 -215 203 -277 35 -23 410 -185 416 -179 2 1 2 504 1 1117 -2 613
-6 1109 -10 1104z"/>
<path d="M1120 1474 c0 -881 -1 -868 57 -979 59 -115 169 -207 292 -245 55
-17 92 -20 283 -20 205 0 220 1 216 17 -9 31 -831 2018 -840 2028 -4 5 -8
-355 -8 -801z"/>
</g>
</svg>
